<svg id="Component_3_2" data-name="Component 3 – 2" xmlns="http://www.w3.org/2000/svg" xmlns:xlink="http://www.w3.org/1999/xlink" width="380" height="1898" viewBox="0 0 380 1898">
  <defs>
    <clipPath id="clip-path">
      <rect width="380" height="631" fill="none"/>
    </clipPath>
    <clipPath id="clip-path-2">
      <rect width="1898" height="375" fill="none"/>
    </clipPath>
  </defs>
  <g id="Repeat_Grid_1" data-name="Repeat Grid 1" transform="translate(0 2.5)" opacity="0.1" clip-path="url(#clip-path)">
    <g transform="translate(-4 0.5)">
      <line id="Line_3" data-name="Line 3" y2="1081" transform="translate(4.5 -0.5)" fill="none" stroke="#575947" stroke-width="1"/>
    </g>
    <g transform="translate(3 0.5)">
      <line id="Line_3-2" data-name="Line 3" y2="1081" transform="translate(4.5 -0.5)" fill="none" stroke="#575947" stroke-width="1"/>
    </g>
    <g transform="translate(10 0.5)">
      <line id="Line_3-3" data-name="Line 3" y2="1081" transform="translate(4.5 -0.5)" fill="none" stroke="#575947" stroke-width="1"/>
    </g>
    <g transform="translate(17 0.5)">
      <line id="Line_3-4" data-name="Line 3" y2="1081" transform="translate(4.5 -0.5)" fill="none" stroke="#575947" stroke-width="1"/>
    </g>
    <g transform="translate(24 0.5)">
      <line id="Line_3-5" data-name="Line 3" y2="1081" transform="translate(4.5 -0.5)" fill="none" stroke="#575947" stroke-width="1"/>
    </g>
    <g transform="translate(31 0.5)">
      <line id="Line_3-6" data-name="Line 3" y2="1081" transform="translate(4.5 -0.5)" fill="none" stroke="#575947" stroke-width="1"/>
    </g>
    <g transform="translate(38 0.5)">
      <line id="Line_3-7" data-name="Line 3" y2="1081" transform="translate(4.5 -0.5)" fill="none" stroke="#575947" stroke-width="1"/>
    </g>
    <g transform="translate(45 0.5)">
      <line id="Line_3-8" data-name="Line 3" y2="1081" transform="translate(4.5 -0.5)" fill="none" stroke="#575947" stroke-width="1"/>
    </g>
    <g transform="translate(52 0.5)">
      <line id="Line_3-9" data-name="Line 3" y2="1081" transform="translate(4.5 -0.5)" fill="none" stroke="#575947" stroke-width="1"/>
    </g>
    <g transform="translate(59 0.5)">
      <line id="Line_3-10" data-name="Line 3" y2="1081" transform="translate(4.5 -0.5)" fill="none" stroke="#575947" stroke-width="1"/>
    </g>
    <g transform="translate(66 0.5)">
      <line id="Line_3-11" data-name="Line 3" y2="1081" transform="translate(4.5 -0.5)" fill="none" stroke="#575947" stroke-width="1"/>
    </g>
    <g transform="translate(73 0.5)">
      <line id="Line_3-12" data-name="Line 3" y2="1081" transform="translate(4.5 -0.5)" fill="none" stroke="#575947" stroke-width="1"/>
    </g>
    <g transform="translate(80 0.5)">
      <line id="Line_3-13" data-name="Line 3" y2="1081" transform="translate(4.5 -0.5)" fill="none" stroke="#575947" stroke-width="1"/>
    </g>
    <g transform="translate(87 0.5)">
      <line id="Line_3-14" data-name="Line 3" y2="1081" transform="translate(4.5 -0.5)" fill="none" stroke="#575947" stroke-width="1"/>
    </g>
    <g transform="translate(94 0.5)">
      <line id="Line_3-15" data-name="Line 3" y2="1081" transform="translate(4.5 -0.5)" fill="none" stroke="#575947" stroke-width="1"/>
    </g>
    <g transform="translate(101 0.5)">
      <line id="Line_3-16" data-name="Line 3" y2="1081" transform="translate(4.5 -0.5)" fill="none" stroke="#575947" stroke-width="1"/>
    </g>
    <g transform="translate(108 0.5)">
      <line id="Line_3-17" data-name="Line 3" y2="1081" transform="translate(4.5 -0.5)" fill="none" stroke="#575947" stroke-width="1"/>
    </g>
    <g transform="translate(115 0.5)">
      <line id="Line_3-18" data-name="Line 3" y2="1081" transform="translate(4.5 -0.5)" fill="none" stroke="#575947" stroke-width="1"/>
    </g>
    <g transform="translate(122 0.5)">
      <line id="Line_3-19" data-name="Line 3" y2="1081" transform="translate(4.5 -0.5)" fill="none" stroke="#575947" stroke-width="1"/>
    </g>
    <g transform="translate(129 0.5)">
      <line id="Line_3-20" data-name="Line 3" y2="1081" transform="translate(4.5 -0.5)" fill="none" stroke="#575947" stroke-width="1"/>
    </g>
    <g transform="translate(136 0.5)">
      <line id="Line_3-21" data-name="Line 3" y2="1081" transform="translate(4.5 -0.5)" fill="none" stroke="#575947" stroke-width="1"/>
    </g>
    <g transform="translate(143 0.5)">
      <line id="Line_3-22" data-name="Line 3" y2="1081" transform="translate(4.5 -0.5)" fill="none" stroke="#575947" stroke-width="1"/>
    </g>
    <g transform="translate(150 0.5)">
      <line id="Line_3-23" data-name="Line 3" y2="1081" transform="translate(4.5 -0.5)" fill="none" stroke="#575947" stroke-width="1"/>
    </g>
    <g transform="translate(157 0.5)">
      <line id="Line_3-24" data-name="Line 3" y2="1081" transform="translate(4.5 -0.5)" fill="none" stroke="#575947" stroke-width="1"/>
    </g>
    <g transform="translate(164 0.5)">
      <line id="Line_3-25" data-name="Line 3" y2="1081" transform="translate(4.5 -0.5)" fill="none" stroke="#575947" stroke-width="1"/>
    </g>
    <g transform="translate(171 0.5)">
      <line id="Line_3-26" data-name="Line 3" y2="1081" transform="translate(4.5 -0.5)" fill="none" stroke="#575947" stroke-width="1"/>
    </g>
    <g transform="translate(178 0.5)">
      <line id="Line_3-27" data-name="Line 3" y2="1081" transform="translate(4.5 -0.5)" fill="none" stroke="#575947" stroke-width="1"/>
    </g>
    <g transform="translate(185 0.5)">
      <line id="Line_3-28" data-name="Line 3" y2="1081" transform="translate(4.5 -0.5)" fill="none" stroke="#575947" stroke-width="1"/>
    </g>
    <g transform="translate(192 0.5)">
      <line id="Line_3-29" data-name="Line 3" y2="1081" transform="translate(4.5 -0.5)" fill="none" stroke="#575947" stroke-width="1"/>
    </g>
    <g transform="translate(199 0.5)">
      <line id="Line_3-30" data-name="Line 3" y2="1081" transform="translate(4.5 -0.5)" fill="none" stroke="#575947" stroke-width="1"/>
    </g>
    <g transform="translate(206 0.5)">
      <line id="Line_3-31" data-name="Line 3" y2="1081" transform="translate(4.5 -0.5)" fill="none" stroke="#575947" stroke-width="1"/>
    </g>
    <g transform="translate(213 0.5)">
      <line id="Line_3-32" data-name="Line 3" y2="1081" transform="translate(4.5 -0.5)" fill="none" stroke="#575947" stroke-width="1"/>
    </g>
    <g transform="translate(220 0.5)">
      <line id="Line_3-33" data-name="Line 3" y2="1081" transform="translate(4.5 -0.5)" fill="none" stroke="#575947" stroke-width="1"/>
    </g>
    <g transform="translate(227 0.5)">
      <line id="Line_3-34" data-name="Line 3" y2="1081" transform="translate(4.5 -0.5)" fill="none" stroke="#575947" stroke-width="1"/>
    </g>
    <g transform="translate(234 0.5)">
      <line id="Line_3-35" data-name="Line 3" y2="1081" transform="translate(4.5 -0.5)" fill="none" stroke="#575947" stroke-width="1"/>
    </g>
    <g transform="translate(241 0.5)">
      <line id="Line_3-36" data-name="Line 3" y2="1081" transform="translate(4.5 -0.5)" fill="none" stroke="#575947" stroke-width="1"/>
    </g>
    <g transform="translate(248 0.5)">
      <line id="Line_3-37" data-name="Line 3" y2="1081" transform="translate(4.5 -0.5)" fill="none" stroke="#575947" stroke-width="1"/>
    </g>
    <g transform="translate(255 0.5)">
      <line id="Line_3-38" data-name="Line 3" y2="1081" transform="translate(4.5 -0.5)" fill="none" stroke="#575947" stroke-width="1"/>
    </g>
    <g transform="translate(262 0.5)">
      <line id="Line_3-39" data-name="Line 3" y2="1081" transform="translate(4.5 -0.5)" fill="none" stroke="#575947" stroke-width="1"/>
    </g>
    <g transform="translate(269 0.5)">
      <line id="Line_3-40" data-name="Line 3" y2="1081" transform="translate(4.5 -0.5)" fill="none" stroke="#575947" stroke-width="1"/>
    </g>
    <g transform="translate(276 0.5)">
      <line id="Line_3-41" data-name="Line 3" y2="1081" transform="translate(4.5 -0.5)" fill="none" stroke="#575947" stroke-width="1"/>
    </g>
    <g transform="translate(283 0.5)">
      <line id="Line_3-42" data-name="Line 3" y2="1081" transform="translate(4.5 -0.5)" fill="none" stroke="#575947" stroke-width="1"/>
    </g>
    <g transform="translate(290 0.5)">
      <line id="Line_3-43" data-name="Line 3" y2="1081" transform="translate(4.5 -0.5)" fill="none" stroke="#575947" stroke-width="1"/>
    </g>
    <g transform="translate(297 0.5)">
      <line id="Line_3-44" data-name="Line 3" y2="1081" transform="translate(4.5 -0.5)" fill="none" stroke="#575947" stroke-width="1"/>
    </g>
    <g transform="translate(304 0.5)">
      <line id="Line_3-45" data-name="Line 3" y2="1081" transform="translate(4.5 -0.5)" fill="none" stroke="#575947" stroke-width="1"/>
    </g>
    <g transform="translate(311 0.5)">
      <line id="Line_3-46" data-name="Line 3" y2="1081" transform="translate(4.5 -0.5)" fill="none" stroke="#575947" stroke-width="1"/>
    </g>
    <g transform="translate(318 0.5)">
      <line id="Line_3-47" data-name="Line 3" y2="1081" transform="translate(4.5 -0.5)" fill="none" stroke="#575947" stroke-width="1"/>
    </g>
    <g transform="translate(325 0.5)">
      <line id="Line_3-48" data-name="Line 3" y2="1081" transform="translate(4.5 -0.5)" fill="none" stroke="#575947" stroke-width="1"/>
    </g>
    <g transform="translate(332 0.5)">
      <line id="Line_3-49" data-name="Line 3" y2="1081" transform="translate(4.5 -0.5)" fill="none" stroke="#575947" stroke-width="1"/>
    </g>
    <g transform="translate(339 0.5)">
      <line id="Line_3-50" data-name="Line 3" y2="1081" transform="translate(4.5 -0.5)" fill="none" stroke="#575947" stroke-width="1"/>
    </g>
    <g transform="translate(346 0.5)">
      <line id="Line_3-51" data-name="Line 3" y2="1081" transform="translate(4.5 -0.5)" fill="none" stroke="#575947" stroke-width="1"/>
    </g>
    <g transform="translate(353 0.5)">
      <line id="Line_3-52" data-name="Line 3" y2="1081" transform="translate(4.5 -0.5)" fill="none" stroke="#575947" stroke-width="1"/>
    </g>
    <g transform="translate(360 0.5)">
      <line id="Line_3-53" data-name="Line 3" y2="1081" transform="translate(4.5 -0.5)" fill="none" stroke="#575947" stroke-width="1"/>
    </g>
    <g transform="translate(367 0.5)">
      <line id="Line_3-54" data-name="Line 3" y2="1081" transform="translate(4.5 -0.5)" fill="none" stroke="#575947" stroke-width="1"/>
    </g>
    <g transform="translate(374 0.5)">
      <line id="Line_3-55" data-name="Line 3" y2="1081" transform="translate(4.5 -0.5)" fill="none" stroke="#575947" stroke-width="1"/>
    </g>
  </g>
  <g id="Repeat_Grid_3" data-name="Repeat Grid 3" transform="translate(0.797 1898) rotate(-90)" opacity="0.1" clip-path="url(#clip-path-2)">
    <g transform="translate(-4 0.5)">
      <line id="Line_3-56" data-name="Line 3" y2="1081" transform="translate(4.5 -0.5)" fill="none" stroke="#575947" stroke-width="1"/>
    </g>
    <g transform="translate(15 0.5)">
      <line id="Line_3-57" data-name="Line 3" y2="1081" transform="translate(4.5 -0.5)" fill="none" stroke="#575947" stroke-width="1"/>
    </g>
    <g transform="translate(34 0.5)">
      <line id="Line_3-58" data-name="Line 3" y2="1081" transform="translate(4.5 -0.5)" fill="none" stroke="#575947" stroke-width="1"/>
    </g>
    <g transform="translate(53 0.5)">
      <line id="Line_3-59" data-name="Line 3" y2="1081" transform="translate(4.5 -0.5)" fill="none" stroke="#575947" stroke-width="1"/>
    </g>
    <g transform="translate(72 0.5)">
      <line id="Line_3-60" data-name="Line 3" y2="1081" transform="translate(4.5 -0.5)" fill="none" stroke="#575947" stroke-width="1"/>
    </g>
    <g transform="translate(91 0.5)">
      <line id="Line_3-61" data-name="Line 3" y2="1081" transform="translate(4.5 -0.5)" fill="none" stroke="#575947" stroke-width="1"/>
    </g>
    <g transform="translate(110 0.5)">
      <line id="Line_3-62" data-name="Line 3" y2="1081" transform="translate(4.5 -0.5)" fill="none" stroke="#575947" stroke-width="1"/>
    </g>
    <g transform="translate(129 0.5)">
      <line id="Line_3-63" data-name="Line 3" y2="1081" transform="translate(4.5 -0.5)" fill="none" stroke="#575947" stroke-width="1"/>
    </g>
    <g transform="translate(148 0.5)">
      <line id="Line_3-64" data-name="Line 3" y2="1081" transform="translate(4.5 -0.5)" fill="none" stroke="#575947" stroke-width="1"/>
    </g>
    <g transform="translate(167 0.5)">
      <line id="Line_3-65" data-name="Line 3" y2="1081" transform="translate(4.5 -0.5)" fill="none" stroke="#575947" stroke-width="1"/>
    </g>
    <g transform="translate(186 0.5)">
      <line id="Line_3-66" data-name="Line 3" y2="1081" transform="translate(4.5 -0.5)" fill="none" stroke="#575947" stroke-width="1"/>
    </g>
    <g transform="translate(205 0.5)">
      <line id="Line_3-67" data-name="Line 3" y2="1081" transform="translate(4.5 -0.5)" fill="none" stroke="#575947" stroke-width="1"/>
    </g>
    <g transform="translate(224 0.5)">
      <line id="Line_3-68" data-name="Line 3" y2="1081" transform="translate(4.5 -0.5)" fill="none" stroke="#575947" stroke-width="1"/>
    </g>
    <g transform="translate(243 0.5)">
      <line id="Line_3-69" data-name="Line 3" y2="1081" transform="translate(4.5 -0.5)" fill="none" stroke="#575947" stroke-width="1"/>
    </g>
    <g transform="translate(262 0.5)">
      <line id="Line_3-70" data-name="Line 3" y2="1081" transform="translate(4.5 -0.5)" fill="none" stroke="#575947" stroke-width="1"/>
    </g>
    <g transform="translate(281 0.5)">
      <line id="Line_3-71" data-name="Line 3" y2="1081" transform="translate(4.5 -0.5)" fill="none" stroke="#575947" stroke-width="1"/>
    </g>
    <g transform="translate(300 0.5)">
      <line id="Line_3-72" data-name="Line 3" y2="1081" transform="translate(4.5 -0.5)" fill="none" stroke="#575947" stroke-width="1"/>
    </g>
    <g transform="translate(319 0.5)">
      <line id="Line_3-73" data-name="Line 3" y2="1081" transform="translate(4.5 -0.5)" fill="none" stroke="#575947" stroke-width="1"/>
    </g>
    <g transform="translate(338 0.5)">
      <line id="Line_3-74" data-name="Line 3" y2="1081" transform="translate(4.5 -0.5)" fill="none" stroke="#575947" stroke-width="1"/>
    </g>
    <g transform="translate(357 0.5)">
      <line id="Line_3-75" data-name="Line 3" y2="1081" transform="translate(4.5 -0.5)" fill="none" stroke="#575947" stroke-width="1"/>
    </g>
    <g transform="translate(376 0.5)">
      <line id="Line_3-76" data-name="Line 3" y2="1081" transform="translate(4.5 -0.5)" fill="none" stroke="#575947" stroke-width="1"/>
    </g>
    <g transform="translate(395 0.5)">
      <line id="Line_3-77" data-name="Line 3" y2="1081" transform="translate(4.5 -0.5)" fill="none" stroke="#575947" stroke-width="1"/>
    </g>
    <g transform="translate(414 0.5)">
      <line id="Line_3-78" data-name="Line 3" y2="1081" transform="translate(4.5 -0.5)" fill="none" stroke="#575947" stroke-width="1"/>
    </g>
    <g transform="translate(433 0.5)">
      <line id="Line_3-79" data-name="Line 3" y2="1081" transform="translate(4.5 -0.5)" fill="none" stroke="#575947" stroke-width="1"/>
    </g>
    <g transform="translate(452 0.5)">
      <line id="Line_3-80" data-name="Line 3" y2="1081" transform="translate(4.5 -0.5)" fill="none" stroke="#575947" stroke-width="1"/>
    </g>
    <g transform="translate(471 0.5)">
      <line id="Line_3-81" data-name="Line 3" y2="1081" transform="translate(4.5 -0.5)" fill="none" stroke="#575947" stroke-width="1"/>
    </g>
    <g transform="translate(490 0.5)">
      <line id="Line_3-82" data-name="Line 3" y2="1081" transform="translate(4.5 -0.5)" fill="none" stroke="#575947" stroke-width="1"/>
    </g>
    <g transform="translate(509 0.5)">
      <line id="Line_3-83" data-name="Line 3" y2="1081" transform="translate(4.5 -0.5)" fill="none" stroke="#575947" stroke-width="1"/>
    </g>
    <g transform="translate(528 0.5)">
      <line id="Line_3-84" data-name="Line 3" y2="1081" transform="translate(4.5 -0.5)" fill="none" stroke="#575947" stroke-width="1"/>
    </g>
    <g transform="translate(547 0.5)">
      <line id="Line_3-85" data-name="Line 3" y2="1081" transform="translate(4.5 -0.5)" fill="none" stroke="#575947" stroke-width="1"/>
    </g>
    <g transform="translate(566 0.5)">
      <line id="Line_3-86" data-name="Line 3" y2="1081" transform="translate(4.5 -0.5)" fill="none" stroke="#575947" stroke-width="1"/>
    </g>
    <g transform="translate(585 0.5)">
      <line id="Line_3-87" data-name="Line 3" y2="1081" transform="translate(4.5 -0.5)" fill="none" stroke="#575947" stroke-width="1"/>
    </g>
    <g transform="translate(604 0.5)">
      <line id="Line_3-88" data-name="Line 3" y2="1081" transform="translate(4.5 -0.5)" fill="none" stroke="#575947" stroke-width="1"/>
    </g>
    <g transform="translate(623 0.5)">
      <line id="Line_3-89" data-name="Line 3" y2="1081" transform="translate(4.5 -0.5)" fill="none" stroke="#575947" stroke-width="1"/>
    </g>
    <g transform="translate(642 0.5)">
      <line id="Line_3-90" data-name="Line 3" y2="1081" transform="translate(4.5 -0.5)" fill="none" stroke="#575947" stroke-width="1"/>
    </g>
    <g transform="translate(661 0.5)">
      <line id="Line_3-91" data-name="Line 3" y2="1081" transform="translate(4.5 -0.5)" fill="none" stroke="#575947" stroke-width="1"/>
    </g>
    <g transform="translate(680 0.5)">
      <line id="Line_3-92" data-name="Line 3" y2="1081" transform="translate(4.5 -0.5)" fill="none" stroke="#575947" stroke-width="1"/>
    </g>
    <g transform="translate(699 0.5)">
      <line id="Line_3-93" data-name="Line 3" y2="1081" transform="translate(4.5 -0.5)" fill="none" stroke="#575947" stroke-width="1"/>
    </g>
    <g transform="translate(718 0.5)">
      <line id="Line_3-94" data-name="Line 3" y2="1081" transform="translate(4.5 -0.5)" fill="none" stroke="#575947" stroke-width="1"/>
    </g>
    <g transform="translate(737 0.5)">
      <line id="Line_3-95" data-name="Line 3" y2="1081" transform="translate(4.5 -0.5)" fill="none" stroke="#575947" stroke-width="1"/>
    </g>
    <g transform="translate(756 0.5)">
      <line id="Line_3-96" data-name="Line 3" y2="1081" transform="translate(4.5 -0.5)" fill="none" stroke="#575947" stroke-width="1"/>
    </g>
    <g transform="translate(775 0.5)">
      <line id="Line_3-97" data-name="Line 3" y2="1081" transform="translate(4.5 -0.5)" fill="none" stroke="#575947" stroke-width="1"/>
    </g>
    <g transform="translate(794 0.5)">
      <line id="Line_3-98" data-name="Line 3" y2="1081" transform="translate(4.5 -0.5)" fill="none" stroke="#575947" stroke-width="1"/>
    </g>
    <g transform="translate(813 0.5)">
      <line id="Line_3-99" data-name="Line 3" y2="1081" transform="translate(4.5 -0.5)" fill="none" stroke="#575947" stroke-width="1"/>
    </g>
    <g transform="translate(832 0.5)">
      <line id="Line_3-100" data-name="Line 3" y2="1081" transform="translate(4.5 -0.5)" fill="none" stroke="#575947" stroke-width="1"/>
    </g>
    <g transform="translate(851 0.5)">
      <line id="Line_3-101" data-name="Line 3" y2="1081" transform="translate(4.5 -0.5)" fill="none" stroke="#575947" stroke-width="1"/>
    </g>
    <g transform="translate(870 0.5)">
      <line id="Line_3-102" data-name="Line 3" y2="1081" transform="translate(4.5 -0.5)" fill="none" stroke="#575947" stroke-width="1"/>
    </g>
    <g transform="translate(889 0.5)">
      <line id="Line_3-103" data-name="Line 3" y2="1081" transform="translate(4.5 -0.5)" fill="none" stroke="#575947" stroke-width="1"/>
    </g>
    <g transform="translate(908 0.5)">
      <line id="Line_3-104" data-name="Line 3" y2="1081" transform="translate(4.5 -0.5)" fill="none" stroke="#575947" stroke-width="1"/>
    </g>
    <g transform="translate(927 0.5)">
      <line id="Line_3-105" data-name="Line 3" y2="1081" transform="translate(4.5 -0.5)" fill="none" stroke="#575947" stroke-width="1"/>
    </g>
    <g transform="translate(946 0.5)">
      <line id="Line_3-106" data-name="Line 3" y2="1081" transform="translate(4.5 -0.5)" fill="none" stroke="#575947" stroke-width="1"/>
    </g>
    <g transform="translate(965 0.5)">
      <line id="Line_3-107" data-name="Line 3" y2="1081" transform="translate(4.5 -0.5)" fill="none" stroke="#575947" stroke-width="1"/>
    </g>
    <g transform="translate(984 0.5)">
      <line id="Line_3-108" data-name="Line 3" y2="1081" transform="translate(4.5 -0.5)" fill="none" stroke="#575947" stroke-width="1"/>
    </g>
    <g transform="translate(1003 0.5)">
      <line id="Line_3-109" data-name="Line 3" y2="1081" transform="translate(4.5 -0.5)" fill="none" stroke="#575947" stroke-width="1"/>
    </g>
    <g transform="translate(1022 0.5)">
      <line id="Line_3-110" data-name="Line 3" y2="1081" transform="translate(4.5 -0.5)" fill="none" stroke="#575947" stroke-width="1"/>
    </g>
    <g transform="translate(1041 0.5)">
      <line id="Line_3-111" data-name="Line 3" y2="1081" transform="translate(4.5 -0.5)" fill="none" stroke="#575947" stroke-width="1"/>
    </g>
    <g transform="translate(1060 0.5)">
      <line id="Line_3-112" data-name="Line 3" y2="1081" transform="translate(4.5 -0.5)" fill="none" stroke="#575947" stroke-width="1"/>
    </g>
    <g transform="translate(1079 0.5)">
      <line id="Line_3-113" data-name="Line 3" y2="1081" transform="translate(4.5 -0.5)" fill="none" stroke="#575947" stroke-width="1"/>
    </g>
    <g transform="translate(1098 0.5)">
      <line id="Line_3-114" data-name="Line 3" y2="1081" transform="translate(4.5 -0.5)" fill="none" stroke="#575947" stroke-width="1"/>
    </g>
    <g transform="translate(1117 0.5)">
      <line id="Line_3-115" data-name="Line 3" y2="1081" transform="translate(4.5 -0.5)" fill="none" stroke="#575947" stroke-width="1"/>
    </g>
    <g transform="translate(1136 0.5)">
      <line id="Line_3-116" data-name="Line 3" y2="1081" transform="translate(4.5 -0.5)" fill="none" stroke="#575947" stroke-width="1"/>
    </g>
    <g transform="translate(1155 0.5)">
      <line id="Line_3-117" data-name="Line 3" y2="1081" transform="translate(4.5 -0.5)" fill="none" stroke="#575947" stroke-width="1"/>
    </g>
    <g transform="translate(1174 0.5)">
      <line id="Line_3-118" data-name="Line 3" y2="1081" transform="translate(4.5 -0.5)" fill="none" stroke="#575947" stroke-width="1"/>
    </g>
    <g transform="translate(1193 0.5)">
      <line id="Line_3-119" data-name="Line 3" y2="1081" transform="translate(4.5 -0.5)" fill="none" stroke="#575947" stroke-width="1"/>
    </g>
    <g transform="translate(1212 0.5)">
      <line id="Line_3-120" data-name="Line 3" y2="1081" transform="translate(4.5 -0.5)" fill="none" stroke="#575947" stroke-width="1"/>
    </g>
    <g transform="translate(1231 0.5)">
      <line id="Line_3-121" data-name="Line 3" y2="1081" transform="translate(4.5 -0.5)" fill="none" stroke="#575947" stroke-width="1"/>
    </g>
    <g transform="translate(1250 0.5)">
      <line id="Line_3-122" data-name="Line 3" y2="1081" transform="translate(4.5 -0.5)" fill="none" stroke="#575947" stroke-width="1"/>
    </g>
    <g transform="translate(1269 0.5)">
      <line id="Line_3-123" data-name="Line 3" y2="1081" transform="translate(4.5 -0.5)" fill="none" stroke="#575947" stroke-width="1"/>
    </g>
    <g transform="translate(1288 0.5)">
      <line id="Line_3-124" data-name="Line 3" y2="1081" transform="translate(4.5 -0.5)" fill="none" stroke="#575947" stroke-width="1"/>
    </g>
    <g transform="translate(1307 0.5)">
      <line id="Line_3-125" data-name="Line 3" y2="1081" transform="translate(4.5 -0.5)" fill="none" stroke="#575947" stroke-width="1"/>
    </g>
    <g transform="translate(1326 0.5)">
      <line id="Line_3-126" data-name="Line 3" y2="1081" transform="translate(4.5 -0.5)" fill="none" stroke="#575947" stroke-width="1"/>
    </g>
    <g transform="translate(1345 0.5)">
      <line id="Line_3-127" data-name="Line 3" y2="1081" transform="translate(4.5 -0.5)" fill="none" stroke="#575947" stroke-width="1"/>
    </g>
    <g transform="translate(1364 0.5)">
      <line id="Line_3-128" data-name="Line 3" y2="1081" transform="translate(4.5 -0.5)" fill="none" stroke="#575947" stroke-width="1"/>
    </g>
    <g transform="translate(1383 0.5)">
      <line id="Line_3-129" data-name="Line 3" y2="1081" transform="translate(4.5 -0.5)" fill="none" stroke="#575947" stroke-width="1"/>
    </g>
    <g transform="translate(1402 0.5)">
      <line id="Line_3-130" data-name="Line 3" y2="1081" transform="translate(4.5 -0.5)" fill="none" stroke="#575947" stroke-width="1"/>
    </g>
    <g transform="translate(1421 0.5)">
      <line id="Line_3-131" data-name="Line 3" y2="1081" transform="translate(4.5 -0.5)" fill="none" stroke="#575947" stroke-width="1"/>
    </g>
    <g transform="translate(1440 0.5)">
      <line id="Line_3-132" data-name="Line 3" y2="1081" transform="translate(4.5 -0.5)" fill="none" stroke="#575947" stroke-width="1"/>
    </g>
    <g transform="translate(1459 0.5)">
      <line id="Line_3-133" data-name="Line 3" y2="1081" transform="translate(4.5 -0.5)" fill="none" stroke="#575947" stroke-width="1"/>
    </g>
    <g transform="translate(1478 0.5)">
      <line id="Line_3-134" data-name="Line 3" y2="1081" transform="translate(4.5 -0.5)" fill="none" stroke="#575947" stroke-width="1"/>
    </g>
    <g transform="translate(1497 0.5)">
      <line id="Line_3-135" data-name="Line 3" y2="1081" transform="translate(4.5 -0.5)" fill="none" stroke="#575947" stroke-width="1"/>
    </g>
    <g transform="translate(1516 0.5)">
      <line id="Line_3-136" data-name="Line 3" y2="1081" transform="translate(4.5 -0.5)" fill="none" stroke="#575947" stroke-width="1"/>
    </g>
    <g transform="translate(1535 0.5)">
      <line id="Line_3-137" data-name="Line 3" y2="1081" transform="translate(4.5 -0.5)" fill="none" stroke="#575947" stroke-width="1"/>
    </g>
    <g transform="translate(1554 0.5)">
      <line id="Line_3-138" data-name="Line 3" y2="1081" transform="translate(4.5 -0.5)" fill="none" stroke="#575947" stroke-width="1"/>
    </g>
    <g transform="translate(1573 0.5)">
      <line id="Line_3-139" data-name="Line 3" y2="1081" transform="translate(4.5 -0.5)" fill="none" stroke="#575947" stroke-width="1"/>
    </g>
    <g transform="translate(1592 0.5)">
      <line id="Line_3-140" data-name="Line 3" y2="1081" transform="translate(4.5 -0.5)" fill="none" stroke="#575947" stroke-width="1"/>
    </g>
    <g transform="translate(1611 0.5)">
      <line id="Line_3-141" data-name="Line 3" y2="1081" transform="translate(4.5 -0.5)" fill="none" stroke="#575947" stroke-width="1"/>
    </g>
    <g transform="translate(1630 0.5)">
      <line id="Line_3-142" data-name="Line 3" y2="1081" transform="translate(4.5 -0.5)" fill="none" stroke="#575947" stroke-width="1"/>
    </g>
    <g transform="translate(1649 0.5)">
      <line id="Line_3-143" data-name="Line 3" y2="1081" transform="translate(4.5 -0.5)" fill="none" stroke="#575947" stroke-width="1"/>
    </g>
    <g transform="translate(1668 0.5)">
      <line id="Line_3-144" data-name="Line 3" y2="1081" transform="translate(4.5 -0.5)" fill="none" stroke="#575947" stroke-width="1"/>
    </g>
    <g transform="translate(1687 0.5)">
      <line id="Line_3-145" data-name="Line 3" y2="1081" transform="translate(4.5 -0.5)" fill="none" stroke="#575947" stroke-width="1"/>
    </g>
    <g transform="translate(1706 0.5)">
      <line id="Line_3-146" data-name="Line 3" y2="1081" transform="translate(4.5 -0.5)" fill="none" stroke="#575947" stroke-width="1"/>
    </g>
    <g transform="translate(1725 0.5)">
      <line id="Line_3-147" data-name="Line 3" y2="1081" transform="translate(4.5 -0.5)" fill="none" stroke="#575947" stroke-width="1"/>
    </g>
    <g transform="translate(1744 0.5)">
      <line id="Line_3-148" data-name="Line 3" y2="1081" transform="translate(4.5 -0.5)" fill="none" stroke="#575947" stroke-width="1"/>
    </g>
    <g transform="translate(1763 0.5)">
      <line id="Line_3-149" data-name="Line 3" y2="1081" transform="translate(4.5 -0.5)" fill="none" stroke="#575947" stroke-width="1"/>
    </g>
    <g transform="translate(1782 0.5)">
      <line id="Line_3-150" data-name="Line 3" y2="1081" transform="translate(4.5 -0.5)" fill="none" stroke="#575947" stroke-width="1"/>
    </g>
    <g transform="translate(1801 0.5)">
      <line id="Line_3-151" data-name="Line 3" y2="1081" transform="translate(4.5 -0.5)" fill="none" stroke="#575947" stroke-width="1"/>
    </g>
    <g transform="translate(1820 0.5)">
      <line id="Line_3-152" data-name="Line 3" y2="1081" transform="translate(4.5 -0.5)" fill="none" stroke="#575947" stroke-width="1"/>
    </g>
    <g transform="translate(1839 0.5)">
      <line id="Line_3-153" data-name="Line 3" y2="1081" transform="translate(4.5 -0.5)" fill="none" stroke="#575947" stroke-width="1"/>
    </g>
    <g transform="translate(1858 0.5)">
      <line id="Line_3-154" data-name="Line 3" y2="1081" transform="translate(4.5 -0.5)" fill="none" stroke="#575947" stroke-width="1"/>
    </g>
    <g transform="translate(1877 0.5)">
      <line id="Line_3-155" data-name="Line 3" y2="1081" transform="translate(4.5 -0.5)" fill="none" stroke="#575947" stroke-width="1"/>
    </g>
  </g>
</svg>
