<?xml version="1.0" standalone="no"?>
<svg
  width="300"
  height="300"
  viewBox="0 0 600 600"
  xmlns="http://www.w3.org/2000/svg"
>
  <g transform="translate(300,300)">
    <path d="M137.6,-220.8C174.3,-190.5,197.2,-145.5,212.1,-100.5C226.9,-55.5,233.7,-10.5,231.7,36.3C229.6,83.1,218.7,131.6,192.1,171.7C165.5,211.8,123.2,243.6,74.6,261.3C25.9,278.9,-29,282.4,-76.9,266.3C-124.7,250.2,-165.5,214.5,-191.8,172.6C-218.1,130.8,-229.8,82.7,-237.1,33.9C-244.4,-14.9,-247.3,-64.6,-230.4,-106.8C-213.6,-149.1,-177.1,-183.9,-135.4,-211.9C-93.7,-239.8,-46.9,-260.9,1.8,-263.7C50.5,-266.5,100.9,-251,137.6,-220.8Z" fill="#96978B" />
  </g>
</svg>
  