<?xml version="1.0" standalone="no"?>
<svg
  width="300"
  height="300"
  viewBox="0 0 600 600"
  xmlns="http://www.w3.org/2000/svg"
>
  <g transform="translate(300,300)">
    <path d="M142.3,-221.6C186.6,-193,226.1,-157.1,246.3,-112.6C266.5,-68,267.4,-14.7,258.2,35.9C249.1,86.6,230,134.7,198.9,174.6C167.8,214.6,124.8,246.4,76.6,260.2C28.5,274.1,-24.8,269.9,-74.3,254.7C-123.8,239.4,-169.6,213,-204.3,175.6C-238.9,138.1,-262.5,89.6,-270.9,38.3C-279.2,-13,-272.4,-67.2,-249.8,-113C-227.2,-158.8,-188.7,-196.3,-144.5,-225C-100.2,-253.6,-50.1,-273.3,-0.5,-272.4C49,-271.6,98,-250.2,142.3,-221.6Z" fill="#F0B29E" />
  </g>
</svg>
  