<?xml version="1.0" standalone="no"?>
<svg
  width="300"
  height="300"
  viewBox="0 0 600 600"
  xmlns="http://www.w3.org/2000/svg"
>
  <g transform="translate(300,300)">
    <path d="M148.3,-226.6C193.2,-201.9,231.2,-162.5,253.4,-115.3C275.5,-68.2,281.8,-13.4,273.9,39.2C266.1,91.8,244.1,142.2,209.3,180C174.4,217.9,126.7,243.3,76,257.7C25.3,272.2,-28.4,275.7,-77.2,261.8C-125.9,247.9,-169.9,216.6,-201.6,176.6C-233.3,136.6,-252.8,87.9,-261.5,36.7C-270.3,-14.5,-268.4,-68.1,-249.4,-115.7C-230.5,-163.3,-194.4,-204.9,-150,-229.8C-105.6,-254.7,-52.8,-262.8,-0.5,-262C51.7,-261.1,103.4,-251.3,148.3,-226.6Z" fill="#9D747F" />
  </g>
</svg>
  