<?xml version="1.0" standalone="no"?>
<svg
  width="300"
  height="300"
  viewBox="0 0 600 600"
  xmlns="http://www.w3.org/2000/svg"
>
  <g transform="translate(300,300)">
    <path d="M146.9,-226.7C190.7,-200.4,226.8,-160.2,248,-113.4C269.3,-66.5,275.7,-13,266.6,37.2C257.6,87.3,233.1,134,199,171.2C164.9,208.4,121.2,236.2,72.4,253.8C23.6,271.5,-30.3,279.2,-78.9,266.1C-127.5,253,-170.7,219.2,-204.1,178.2C-237.6,137.2,-261.3,89.1,-266.8,39.4C-272.2,-10.2,-259.4,-61.4,-236.5,-106.6C-213.7,-151.9,-180.9,-191.2,-139.8,-218.8C-98.8,-246.3,-49.4,-262.2,1.1,-263.9C51.5,-265.5,103.1,-253.1,146.9,-226.7Z" fill="#B7B5A1" />
  </g>
</svg>
  