<?xml version="1.0" standalone="no"?>
<svg
  width="300"
  height="300"
  viewBox="0 0 600 600"
  xmlns="http://www.w3.org/2000/svg"
>
  <g transform="translate(300,300)">
    <path d="M149.6,-229.4C194.6,-203.8,232.4,-163.6,252.1,-116.3C271.8,-69.1,273.5,-14.8,264.2,36.8C255,88.4,234.8,137.2,202,174.9C169.1,212.6,123.6,239.2,74.1,254.7C24.7,270.3,-28.6,274.7,-76.5,260.7C-124.4,246.6,-166.9,214,-202.1,174.5C-237.2,135,-265.1,88.5,-273.1,38.7C-281.1,-11.1,-269.3,-64.3,-244.9,-109.4C-220.5,-154.4,-183.5,-191.2,-140.6,-217.7C-97.7,-244.3,-48.8,-260.7,1.7,-263.3C52.3,-266,104.5,-255,149.6,-229.4Z" fill="#8B7077" />
  </g>
</svg>
  