<?xml version="1.0" standalone="no"?>
<svg
  width="600"
  height="600"
  viewBox="0 0 600 600"
  xmlns="http://www.w3.org/2000/svg"
>
  <g transform="translate(300,300)">
    <path d="M117.1,-200.4C144.1,-164.9,153,-119.4,178,-77.5C203,-35.6,244,2.7,233.4,29.2C222.8,55.7,160.5,70.4,123,97.6C85.5,124.9,72.8,164.6,47,182.3C21.3,199.9,-17.4,195.4,-62.6,191.9C-107.9,188.4,-159.8,185.9,-197.1,160.8C-234.4,135.7,-257.3,88,-243.1,47.8C-228.9,7.6,-177.7,-25.1,-147.6,-57.7C-117.6,-90.4,-108.8,-123,-87.8,-161.2C-66.7,-199.4,-33.3,-243.2,5.9,-252.3C45.1,-261.4,90.1,-235.9,117.1,-200.4Z" fill="#fff" />
  </g>
</svg>
  