<?xml version="1.0" standalone="no"?>
<svg
  width="600"
  height="600"
  viewBox="0 0 600 600"
  xmlns="http://www.w3.org/2000/svg"
>
  <g transform="translate(300,300)">
    <path d="M144.4,-219.3C182.4,-200.2,205.4,-152.2,209.6,-106.4C213.9,-60.6,199.5,-17,196.2,30.5C192.9,78,200.8,129.4,177.9,152.1C155,174.9,101.5,169,60.4,160.3C19.3,151.6,-9.2,140.1,-43.8,135.9C-78.3,131.8,-118.9,135,-133.6,116.6C-148.2,98.1,-137,58.1,-140.1,21.5C-143.2,-15.1,-160.8,-48.3,-159.3,-81.6C-157.8,-114.9,-137.3,-148.3,-107.6,-171.2C-77.9,-194.1,-38.9,-206.6,7.1,-217.6C53.2,-228.7,106.3,-238.4,144.4,-219.3Z" fill="#fff" />
  </g>
</svg>
  